nColumns=19
nRows=49
DataType=double
version=3
OpenSimVersion=4.1
endheader
time	ground_force_1_vx	ground_force_1_vy	ground_force_1_vz	ground_force_1_px	ground_force_1_py	ground_force_1_pz	ground_force_1_mx	ground_force_1_my	ground_force_1_mz	ground_force_2_vx	ground_force_2_vy	ground_force_2_vz	ground_force_2_px	ground_force_2_py	ground_force_2_pz	ground_force_2_mx	ground_force_2_my	ground_force_2_mz
1.35	-252.005	1379.04	26.7765	0.946633	0	-0.336668	0	-4.25833	0	0	0	0	0.000313718	0	-0.000541994	0	0	0
1.35833	-289.012	1429.17	18.2463	0.923374	0	-0.337546	0	-4.68801	0	0	0	0	0.000313623	0	-0.000542045	0	0	0
1.36667	-299.459	1502.27	1.43031	0.895029	0	-0.338233	0	-4.08907	0	0	0	0	0.000313529	0	-0.000542095	0	0	0
1.375	-270.21	1609.74	-8.45715	0.86334	0	-0.336749	0	-2.68392	0	0	0	0	0.000313436	0	-0.000542146	0	0	0
1.38333	-214.127	1714.07	-8.01079	0.830931	0	-0.333863	0	-0.801281	0	0	0	0	0.000313343	0	-0.000542195	0	0	0
1.39167	-149.698	1771.64	-6.0073	0.799124	0	-0.331533	-0	1.23822	-0	0	0	0	0.000313251	0	-0.000542245	0	0	0
1.4	-88.4022	1764.1	-9.2781	0.767588	0	-0.330468	-0	3.13965	-0	0	0	0	0.00031316	0	-0.000542294	0	0	0
1.40833	-30.5424	1701.15	-14.6811	0.735121	0	-0.329765	-0	4.62329	-0	0	0	0	0.000313069	0	-0.000542343	0	0	0
1.41667	27.2312	1600.47	-15.2266	0.701467	0	-0.328456	-0	5.45775	-0	0	0	0	0.000312979	0	-0.000542391	0	0	0
1.425	86.345	1470.83	-8.65262	0.667403	0	-0.326733	-0	5.52782	-0	0	0	0	0.000312889	0	-0.000542439	0	0	0
1.43333	141.166	1314.7	2.11723	0.633739	0	-0.325461	-0	4.87877	-0	0	0	0	0.000312801	0	-0.000542487	0	0	0
1.44167	181.874	1134.77	13.4885	0.600868	0	-0.325019	-0	3.70328	-0	0	0	0	0.000312713	0	-0.000542534	0	0	0
1.45	203.191	936.989	23.3533	0.568956	0	-0.324899	-0	2.28215	-0	0	0	0	0.000312626	0	-0.000542581	0	0	0
1.45833	204.214	730.26	30.2026	0.537338	0	-0.324333	-0	0.907193	-0	0	0	0	0.000312539	0	-0.000542627	0	0	0
1.46667	187.396	527.884	32.4694	0.505014	0	-0.322753	0	-0.19084	0	0	0	0	0.000312454	0	-0.000542673	0	0	0
1.475	155.499	346.672	29.3384	0.473926	0	-0.319669	0	-0.892674	0	0	0	0	0.000312369	0	-0.000542719	0	0	0
1.48333	112.82	202.49	21.9303	0.450221	0	-0.314103	0	-1.20537	0	0	0	0	0.000312285	0	-0.000542764	0	0	0
1.49167	69.0456	103.912	13.336	0.44389	0	-0.303105	0	-1.23562	0	0	0	0	0.000312201	0	-0.000542809	0	0	0
1.5	35.489	48.1962	6.8506	0.475635	0	-0.274324	0	-1.13212	0	0	0	0	0.000312119	0	-0.000542853	0	0	0
1.50833	16.4268	23.7509	3.70485	0.584946	0	-0.197847	0	-1.0238	0	0	0	0	0.000312037	0	-0.000542897	0	0	0
1.51667	6.93882	14.8116	2.75497	0.67894	0	-0.0917061	0	-0.982293	0	0	0	0	0.000311956	0	-0.00054294	0	0	0
1.525	1.59476	10.0041	2.44162	0.5415	0	-0.00635213	0	-1.01927	0	0	0	0	0.000311876	0	-0.000542983	0	0	0
1.53333	0	0	0	0.000311394	0	-0.000543175	0	0	0	0	0	0	0.000311797	0	-0.000543026	0	0	0
1.54167	0	0	0	0.000311314	0	-0.000543218	0	0	0	0	0	0	0.000311719	0	-0.000543068	0	0	0
1.55	0	0	0	0.000311234	0	-0.00054326	0	0	0	0	0	0	0.000311642	0	-0.000543109	0	0	0
1.55833	0	0	0	0.000311155	0	-0.000543302	0	0	0	0	0	0	0.000311565	0	-0.00054315	0	0	0
1.56667	0	0	0	0.000311078	0	-0.000543343	0	0	0	0	0	0	0.00031149	0	-0.000543191	0	0	0
1.575	0	0	0	0.000311001	0	-0.000543384	0	0	0	0	0	0	0.000311415	0	-0.000543231	0	0	0
1.58333	0	0	0	0.000310925	0	-0.000543425	0	0	0	0	0	0	0.000311342	0	-0.00054327	0	0	0
1.59167	0	0	0	0.000310851	0	-0.000543464	0	0	0	-0.279455	11.2762	0.270669	0.50519	0	-0.144132	0	-1.47146	0
1.6	0	0	0	0.000310777	0	-0.000543504	0	0	0	-5.52227	19.7191	-2.38228	0.755661	0	-0.259491	0	-1.54597	0
1.60833	0	0	0	0.000310704	0	-0.000543542	0	0	0	-18.1091	53.2279	-6.49637	0.918661	0	-0.347981	0	-1.61414	0
1.61667	0	0	0	0.000310632	0	-0.000543581	0	0	0	-42.1632	151.001	-11.076	0.953602	0	-0.37443	0	-1.62327	0
1.625	0	0	0	0.000310562	0	-0.000543618	0	0	0	-76.9056	357.069	-14.0229	0.959132	0	-0.379793	0	-1.49345	0
1.63333	0	0	0	0.000310492	0	-0.000543655	0	0	0	-113.42	664.845	-13.6412	0.956749	0	-0.378562	0	-1.14037	0
1.64167	0	0	0	0.000310423	0	-0.000543692	0	0	0	-146.572	972.696	-12.161	0.949025	0	-0.37503	0	-0.53095	0
1.65	0	0	0	0.000310356	0	-0.000543728	0	0	0	-179.132	1166.54	-16.2812	0.936847	0	-0.372809	-0	0.241828	-0
1.65833	0	0	0	0.000310289	0	-0.000543763	0	0	0	-215.432	1250.34	-28.8953	0.919483	0	-0.375002	-0	0.921528	-0
1.66667	0	0	0	0.000310224	0	-0.000543798	0	0	0	-250.515	1317.29	-40.529	0.896247	0	-0.380257	-0	1.16013	-0
1.675	0	0	0	0.00031016	0	-0.000543832	0	0	0	-264.243	1432.97	-36.8518	0.868631	0	-0.382979	-0	0.700611	-0
1.68333	0	0	0	0.000310096	0	-0.000543866	0	0	0	-243.834	1583.45	-16.4408	0.838137	0	-0.382015	0	-0.449302	0
1.69167	0	0	0	0.000310034	0	-0.000543899	0	0	0	-196.11	1708.85	5.94908	0.80599	0	-0.381366	0	-2.00023	0
1.7	0	0	0	0.000309973	0	-0.000543932	0	0	0	-135.712	1767.56	16.1479	0.77277	0	-0.383358	0	-3.53939	0
1.70833	0	0	0	0.000309914	0	-0.000543963	0	0	0	-70.8071	1761.74	14.7662	0.738767	0	-0.38674	0	-4.72706	0
1.71667	0	0	0	0.000309855	0	-0.000543995	0	0	0	-2.48578	1715.57	11.873	0.704582	0	-0.389034	0	-5.38738	0
1.725	0	0	0	0.000309797	0	-0.000544025	0	0	0	65.81	1640	12.8807	0.671128	0	-0.389565	0	-5.47853	0
1.73333	0	0	0	0.000309741	0	-0.000544055	0	0	0	128.618	1528.16	14.4796	0.63854	0	-0.389462	0	-5.03144	0
1.74167	0	0	0	0.000309686	0	-0.000544085	0	0	0	181.571	1374.12	11.6772	0.605418	0	-0.389718	0	-4.12752	0
1.75	0	0	0	0.000309632	0	-0.000544114	0	0	0	221.313	1183.1	3.648	0.571126	0	-0.390159	0	-2.90941	0
